M48
;Layer_Color=9474304
;FILE_FORMAT=2:4
INCH,LZ
;TYPE=PLATED
T1F00S00C0.0120
T2F00S00C0.0402
;TYPE=NON_PLATED
T3F00S00C0.0500
%
T01
X0333Y0297
X0339
X036Y0299
X03845Y03005
X0294Y02845
X0246Y0286
X0237Y03285
X0294Y0346
X02895Y04105
Y0417
X02995Y0416
X0249Y04075
X0359Y04035
X03633Y040327
X036705Y0403
X03715Y04005
X03702Y03435
X036648Y0344
X037Y03325
X0358Y0333
X033888Y0347
X0333
T02
X0315Y026834
X0305
X0295
X0285
X0256
X0246
X02495Y04415
X02595
X02695
X02795
X02895
X02995
X03095
X03195
X03295
X03395
X03495
X03595
X03695
X03795
X03895
X03995
T03
X024729Y036599
Y038331
M30
