G04*
G04 #@! TF.GenerationSoftware,Altium Limited,Altium Designer,19.0.6 (157)*
G04*
G04 Layer_Color=65535*
%FSLAX24Y24*%
%MOIN*%
G70*
G01*
G75*
%ADD10C,0.0236*%
%ADD11C,0.0098*%
%ADD12C,0.0060*%
%ADD13C,0.0079*%
%ADD14C,0.0060*%
%ADD15C,0.0100*%
D10*
X36351Y38667D02*
G03*
X36351Y38667I-118J0D01*
G01*
D11*
X35455Y39140D02*
G03*
X35455Y39140I-49J0D01*
G01*
X26471Y38095D02*
G03*
X26471Y38095I-49J0D01*
G01*
D12*
X49100Y27084D02*
Y28884D01*
X50900D01*
Y27084D02*
Y28884D01*
X49100Y27084D02*
X50900D01*
X44250D02*
X46050D01*
Y28884D01*
X44250D02*
X46050D01*
X44250Y27084D02*
Y28884D01*
X39150Y27084D02*
X40950D01*
Y28884D01*
X39150D02*
X40950D01*
X39150Y27084D02*
Y28884D01*
X34300Y27084D02*
X36100D01*
Y28884D01*
X34300D02*
X36100D01*
X34300Y27084D02*
Y28884D01*
X35222Y31850D02*
X37622D01*
X35222D02*
Y33050D01*
X37622D01*
Y31850D02*
Y33050D01*
X32250Y37215D02*
Y39015D01*
X30450D02*
X32250D01*
X30450Y37215D02*
Y39015D01*
Y37215D02*
X32250D01*
D13*
X24100Y26334D02*
X26100D01*
Y27334D01*
X24100D02*
X26100D01*
X24100Y26334D02*
Y27334D01*
X35839Y35439D02*
X39461D01*
X35839Y39061D02*
X39461D01*
Y35439D02*
Y39061D01*
X35839Y35439D02*
Y39061D01*
X28000Y26334D02*
Y27334D01*
X32000D01*
X28000Y26334D02*
X32000D01*
Y27334D01*
X22386Y35516D02*
X22898D01*
X26166Y36264D02*
Y36579D01*
X22386Y35516D02*
Y39414D01*
X22898D01*
X24197D02*
X25063D01*
X26166Y38351D02*
Y38666D01*
X24450Y43650D02*
Y44650D01*
X25200D01*
X24450Y43650D02*
X40450D01*
X25200Y44650D02*
X40450D01*
Y43650D02*
Y44650D01*
D14*
X38140Y30650D02*
Y31250D01*
X36840D02*
X38140D01*
X36840Y30650D02*
X38140D01*
X36840D02*
Y31250D01*
X34750Y30650D02*
Y31250D01*
Y30650D02*
X36050D01*
X34750Y31250D02*
X36050D01*
Y30650D02*
Y31250D01*
X32974Y35983D02*
Y36583D01*
X31674D02*
X32974D01*
X31674Y35983D02*
X32974D01*
X31674D02*
Y36583D01*
X31606Y34815D02*
Y35415D01*
Y34815D02*
X32906D01*
X31606Y35415D02*
X32906D01*
Y34815D02*
Y35415D01*
D15*
X40950Y35750D02*
Y35150D01*
X41250D01*
X41350Y35250D01*
Y35650D01*
X41250Y35750D01*
X40950D01*
X41850Y35150D02*
X41650D01*
X41550Y35250D01*
Y35450D01*
X41650Y35550D01*
X41850D01*
X41950Y35450D01*
Y35350D01*
X41550D01*
X42150Y35150D02*
X42450D01*
X42549Y35250D01*
X42450Y35350D01*
X42250D01*
X42150Y35450D01*
X42250Y35550D01*
X42549D01*
X42749Y35150D02*
X42949D01*
X42849D01*
Y35550D01*
X42749D01*
X43449Y34950D02*
X43549D01*
X43649Y35050D01*
Y35550D01*
X43349D01*
X43249Y35450D01*
Y35250D01*
X43349Y35150D01*
X43649D01*
X43849D02*
Y35550D01*
X44149D01*
X44249Y35450D01*
Y35150D01*
X45049Y35750D02*
Y35150D01*
X45349D01*
X45449Y35250D01*
Y35350D01*
X45349Y35450D01*
X45049D01*
X45349D01*
X45449Y35550D01*
Y35650D01*
X45349Y35750D01*
X45049D01*
X45648Y35550D02*
Y35250D01*
X45748Y35150D01*
X46048D01*
Y35050D01*
X45948Y34950D01*
X45848D01*
X46048Y35150D02*
Y35550D01*
X46848Y35750D02*
Y35650D01*
X47048Y35450D01*
X47248Y35650D01*
Y35750D01*
X47048Y35450D02*
Y35150D01*
X47448D02*
X47648D01*
X47548D01*
Y35550D01*
X47448D01*
X47948Y35150D02*
Y35550D01*
X48248D01*
X48348Y35450D01*
Y35150D01*
X48947Y35750D02*
X48548D01*
Y35450D01*
X48747D01*
X48548D01*
Y35150D01*
X49447D02*
X49247D01*
X49147Y35250D01*
Y35450D01*
X49247Y35550D01*
X49447D01*
X49547Y35450D01*
Y35350D01*
X49147D01*
X49747Y35150D02*
Y35550D01*
X50047D01*
X50147Y35450D01*
Y35150D01*
X50547Y34950D02*
X50647D01*
X50747Y35050D01*
Y35550D01*
X50447D01*
X50347Y35450D01*
Y35250D01*
X50447Y35150D01*
X50747D01*
X43850Y37400D02*
Y36800D01*
X44150D01*
X44250Y36900D01*
Y37000D01*
X44150Y37100D01*
X43850D01*
X44150D01*
X44250Y37200D01*
Y37300D01*
X44150Y37400D01*
X43850D01*
X44450Y36800D02*
X44650D01*
X44550D01*
Y37400D01*
X44450Y37300D01*
X44950D02*
X45050Y37400D01*
X45250D01*
X45350Y37300D01*
Y36900D01*
X45250Y36800D01*
X45050D01*
X44950Y36900D01*
Y37300D01*
X45549D02*
X45649Y37400D01*
X45849D01*
X45949Y37300D01*
Y36900D01*
X45849Y36800D01*
X45649D01*
X45549Y36900D01*
Y37300D01*
X46149Y36800D02*
X46349D01*
X46249D01*
Y37400D01*
X46149Y37300D01*
X46649Y36700D02*
X47049D01*
X47249Y37300D02*
X47349Y37400D01*
X47549D01*
X47649Y37300D01*
Y36900D01*
X47549Y36800D01*
X47349D01*
X47249Y36900D01*
Y37300D01*
X47849Y36800D02*
X48049D01*
X47949D01*
Y37400D01*
X47849Y37300D01*
X33900Y33050D02*
Y32950D01*
X34100Y32750D01*
X34300Y32950D01*
Y33050D01*
X34100Y32750D02*
Y32450D01*
X34500D02*
X34700D01*
X34600D01*
Y33050D01*
X34500Y32950D01*
X22200Y40750D02*
Y40250D01*
X22300Y40150D01*
X22500D01*
X22600Y40250D01*
Y40750D01*
X23200Y40650D02*
X23100Y40750D01*
X22900D01*
X22800Y40650D01*
Y40550D01*
X22900Y40450D01*
X23100D01*
X23200Y40350D01*
Y40250D01*
X23100Y40150D01*
X22900D01*
X22800Y40250D01*
X23400Y40750D02*
Y40150D01*
X23700D01*
X23799Y40250D01*
Y40350D01*
X23700Y40450D01*
X23400D01*
X23700D01*
X23799Y40550D01*
Y40650D01*
X23700Y40750D01*
X23400D01*
X40600Y37350D02*
Y36850D01*
X40700Y36750D01*
X40900D01*
X41000Y36850D01*
Y37350D01*
X41200Y36750D02*
X41400D01*
X41300D01*
Y37350D01*
X41200Y37250D01*
X31250Y39815D02*
X31150Y39915D01*
X30950D01*
X30850Y39815D01*
Y39715D01*
X30950Y39615D01*
X31150D01*
X31250Y39515D01*
Y39415D01*
X31150Y39315D01*
X30950D01*
X30850Y39415D01*
X31450Y39315D02*
X31650D01*
X31550D01*
Y39915D01*
X31450Y39815D01*
X30400Y34550D02*
Y35150D01*
X30700D01*
X30800Y35050D01*
Y34850D01*
X30700Y34750D01*
X30400D01*
X30600D02*
X30800Y34550D01*
X31000D02*
X31200D01*
X31100D01*
Y35150D01*
X31000Y35050D01*
X41000Y44550D02*
Y43950D01*
X41400D01*
X42000Y44450D02*
X41900Y44550D01*
X41700D01*
X41600Y44450D01*
Y44050D01*
X41700Y43950D01*
X41900D01*
X42000Y44050D01*
X42200Y44550D02*
Y43950D01*
X42500D01*
X42599Y44050D01*
Y44450D01*
X42500Y44550D01*
X42200D01*
X42799Y43950D02*
X42999D01*
X42899D01*
Y44550D01*
X42799Y44450D01*
X43699Y44550D02*
X43499Y44450D01*
X43299Y44250D01*
Y44050D01*
X43399Y43950D01*
X43599D01*
X43699Y44050D01*
Y44150D01*
X43599Y44250D01*
X43299D01*
X43899Y44450D02*
X43999Y44550D01*
X44199D01*
X44299Y44450D01*
Y44050D01*
X44199Y43950D01*
X43999D01*
X43899Y44050D01*
Y44450D01*
X44899Y43950D02*
X44499D01*
X44899Y44350D01*
Y44450D01*
X44799Y44550D01*
X44599D01*
X44499Y44450D01*
X28250Y28250D02*
X28050D01*
X28150D01*
Y27750D01*
X28050Y27650D01*
X27950D01*
X27850Y27750D01*
X28850Y27650D02*
X28450D01*
X28850Y28050D01*
Y28150D01*
X28750Y28250D01*
X28550D01*
X28450Y28150D01*
X26200Y28150D02*
X26000D01*
X26100D01*
Y27650D01*
X26000Y27550D01*
X25900D01*
X25800Y27650D01*
X26400Y27550D02*
X26600D01*
X26500D01*
Y28150D01*
X26400Y28050D01*
X38400Y28200D02*
X38000D01*
Y27900D01*
X38200D01*
X38000D01*
Y27600D01*
X38600Y27900D02*
X39000D01*
X33500Y28100D02*
X33100D01*
Y27800D01*
X33300D01*
X33100D01*
Y27500D01*
X33700Y27800D02*
X34100D01*
X33900Y28000D02*
Y27600D01*
X47950Y28300D02*
Y27700D01*
X48250D01*
X48350Y27800D01*
Y28200D01*
X48250Y28300D01*
X47950D01*
X48550Y28000D02*
X48950D01*
X43050Y28250D02*
Y27650D01*
X43350D01*
X43450Y27750D01*
Y28150D01*
X43350Y28250D01*
X43050D01*
X43650Y27950D02*
X44050D01*
X43850Y28150D02*
Y27750D01*
X30768Y36568D02*
X30668Y36668D01*
X30468D01*
X30368Y36568D01*
Y36168D01*
X30468Y36068D01*
X30668D01*
X30768Y36168D01*
X30968Y36568D02*
X31068Y36668D01*
X31268D01*
X31368Y36568D01*
Y36468D01*
X31268Y36368D01*
X31168D01*
X31268D01*
X31368Y36268D01*
Y36168D01*
X31268Y36068D01*
X31068D01*
X30968Y36168D01*
X33800Y31200D02*
X33700Y31300D01*
X33500D01*
X33400Y31200D01*
Y30800D01*
X33500Y30700D01*
X33700D01*
X33800Y30800D01*
X34400Y30700D02*
X34000D01*
X34400Y31100D01*
Y31200D01*
X34300Y31300D01*
X34100D01*
X34000Y31200D01*
X38850Y31250D02*
X38750Y31350D01*
X38550D01*
X38450Y31250D01*
Y30850D01*
X38550Y30750D01*
X38750D01*
X38850Y30850D01*
X39050Y30750D02*
X39250D01*
X39150D01*
Y31350D01*
X39050Y31250D01*
M02*
