G04*
G04 #@! TF.GenerationSoftware,Altium Limited,Altium Designer,19.0.6 (157)*
G04*
G04 Layer_Color=8421504*
%FSLAX24Y24*%
%MOIN*%
G70*
G01*
G75*
%ADD16R,0.0394X0.0492*%
%ADD17O,0.0197X0.0551*%
%ADD18O,0.0551X0.0197*%
%ADD19R,0.0380X0.0315*%
%ADD20R,0.0669X0.0945*%
%ADD21R,0.0492X0.0394*%
%ADD22R,0.0984X0.0787*%
%ADD23R,0.0984X0.0787*%
%ADD24R,0.0906X0.0197*%
D16*
X50689Y26709D02*
D03*
X49311Y29259D02*
D03*
Y26700D02*
D03*
X50689Y29268D02*
D03*
X45839D02*
D03*
X44461Y26700D02*
D03*
Y29259D02*
D03*
X45839Y26709D02*
D03*
X40739Y29268D02*
D03*
X39361Y26700D02*
D03*
Y29259D02*
D03*
X40739Y26709D02*
D03*
X35889Y29268D02*
D03*
X34511Y26700D02*
D03*
Y29259D02*
D03*
X35889Y26709D02*
D03*
D17*
X36075Y39494D02*
D03*
X36390D02*
D03*
X36705D02*
D03*
X37020D02*
D03*
X37335D02*
D03*
X37650D02*
D03*
X37965D02*
D03*
X38280D02*
D03*
X38595D02*
D03*
X38910D02*
D03*
X39225D02*
D03*
Y35006D02*
D03*
X38910D02*
D03*
X38595D02*
D03*
X38280D02*
D03*
X37965D02*
D03*
X37650D02*
D03*
X37335D02*
D03*
X37020D02*
D03*
X36705D02*
D03*
X36390D02*
D03*
X36075D02*
D03*
D18*
X39894Y38825D02*
D03*
Y38510D02*
D03*
Y38195D02*
D03*
Y37880D02*
D03*
Y37565D02*
D03*
Y37250D02*
D03*
Y36935D02*
D03*
Y36620D02*
D03*
Y36305D02*
D03*
Y35990D02*
D03*
Y35675D02*
D03*
X35406D02*
D03*
Y35990D02*
D03*
Y36305D02*
D03*
Y36620D02*
D03*
Y36935D02*
D03*
Y37250D02*
D03*
Y37565D02*
D03*
Y37880D02*
D03*
Y38195D02*
D03*
Y38510D02*
D03*
Y38825D02*
D03*
D19*
X37180Y30950D02*
D03*
X37800D02*
D03*
X35710D02*
D03*
X35090D02*
D03*
X32014Y36283D02*
D03*
X32634D02*
D03*
X32566Y35115D02*
D03*
X31946D02*
D03*
D20*
X37150Y32450D02*
D03*
X35693D02*
D03*
D21*
X30066Y38804D02*
D03*
X32634Y37426D02*
D03*
X30075D02*
D03*
X32625Y38804D02*
D03*
D22*
X23448Y35713D02*
D03*
Y39217D02*
D03*
X25713D02*
D03*
D23*
Y35713D02*
D03*
D24*
X25752Y36835D02*
D03*
Y37150D02*
D03*
Y37465D02*
D03*
Y37780D02*
D03*
Y38095D02*
D03*
M02*
