G04*
G04 #@! TF.GenerationSoftware,Altium Limited,Altium Designer,19.0.6 (157)*
G04*
G04 Layer_Physical_Order=2*
G04 Layer_Color=16711680*
%FSLAX24Y24*%
%MOIN*%
G70*
G01*
G75*
%ADD15C,0.0100*%
%ADD37C,0.0200*%
%ADD39C,0.0591*%
%ADD40R,0.0591X0.0591*%
%ADD41C,0.0236*%
%ADD42C,0.0240*%
D15*
X36900Y34150D02*
Y34192D01*
X37020Y34312D01*
Y34350D01*
X36648Y34148D02*
Y34400D01*
X36900Y34150D02*
X36918Y33370D01*
X37000Y33288D01*
X35800Y33300D02*
X36648Y34148D01*
X37000Y33250D02*
Y33288D01*
X29950Y41600D02*
X30600Y40950D01*
X36093D01*
X28950Y41050D02*
X29650Y40350D01*
X36093Y40950D02*
X36705Y40338D01*
Y40300D02*
Y40338D01*
X28300Y38850D02*
X29480Y40030D01*
X35950Y40651D02*
X36005D01*
X36330Y40327D01*
X29480Y40030D02*
X37130D01*
X37150Y40050D01*
X28950Y41700D02*
X29950Y40700D01*
X30100D01*
X35950Y40651D01*
X29650Y40350D02*
X35900D01*
X38412Y30050D02*
X38450D01*
X38262Y29900D02*
X38412Y30050D01*
X36000Y29900D02*
X38262D01*
X25200Y30312D02*
X27650Y30350D01*
X24600Y29250D02*
X25200Y30312D01*
X24600Y28600D02*
Y29250D01*
X27650Y30350D02*
X28300Y31000D01*
Y38850D01*
X33888Y29712D02*
X33900Y29700D01*
X33888Y29712D02*
Y34700D01*
X33300Y29700D02*
Y34700D01*
D37*
X23700Y32850D02*
Y34221D01*
X24329Y34850D01*
Y39198D01*
X29400Y28450D02*
Y34600D01*
X24329Y39198D02*
X24900Y39769D01*
Y40750D01*
D39*
X24600Y26834D02*
D03*
X30500D02*
D03*
X29500D02*
D03*
X28500D02*
D03*
X28950Y44150D02*
D03*
X29950D02*
D03*
X27950D02*
D03*
X31950D02*
D03*
X32950D02*
D03*
X30950D02*
D03*
X26950D02*
D03*
X25950D02*
D03*
X33950D02*
D03*
X34950D02*
D03*
X36950D02*
D03*
X35950D02*
D03*
X37950D02*
D03*
X38950D02*
D03*
X39950D02*
D03*
D40*
X25600Y26834D02*
D03*
X31500D02*
D03*
X24950Y44150D02*
D03*
D41*
X24729Y38331D02*
D03*
Y36599D02*
D03*
D42*
X36648Y34400D02*
D03*
X37020Y34350D02*
D03*
X23700Y32850D02*
D03*
X29950Y41600D02*
D03*
X28950Y41050D02*
D03*
X36330Y40327D02*
D03*
X36705Y40300D02*
D03*
X28950Y41700D02*
D03*
X37150Y40050D02*
D03*
X35900Y40350D02*
D03*
X29400Y28450D02*
D03*
Y34600D02*
D03*
X24900Y40750D02*
D03*
X38450Y30050D02*
D03*
X36000Y29900D02*
D03*
X24600Y28600D02*
D03*
X33900Y29700D02*
D03*
X33300D02*
D03*
X33888Y34700D02*
D03*
X33300D02*
D03*
X37000Y33250D02*
D03*
X35800Y33300D02*
D03*
M02*
