G04*
G04 #@! TF.GenerationSoftware,Altium Limited,Altium Designer,19.0.6 (157)*
G04*
G04 Layer_Physical_Order=1*
G04 Layer_Color=255*
%FSLAX24Y24*%
%MOIN*%
G70*
G01*
G75*
%ADD15C,0.0100*%
%ADD16R,0.0394X0.0492*%
%ADD17O,0.0197X0.0551*%
%ADD18O,0.0551X0.0197*%
%ADD19R,0.0380X0.0315*%
%ADD20R,0.0669X0.0945*%
%ADD21R,0.0492X0.0394*%
%ADD22R,0.0984X0.0787*%
%ADD23R,0.0984X0.0787*%
%ADD24R,0.0906X0.0197*%
%ADD37C,0.0200*%
%ADD38C,0.0050*%
%ADD39C,0.0591*%
%ADD40R,0.0591X0.0591*%
%ADD41C,0.0236*%
%ADD42C,0.0240*%
D15*
X37020Y34350D02*
Y35006D01*
X28500Y26800D02*
Y26834D01*
X26950Y38145D02*
X27000Y38095D01*
X25532D02*
X25752Y38099D01*
X28611Y38095D02*
X28626Y38080D01*
X27615Y36835D02*
X27650Y36800D01*
X39894Y37880D02*
X41650D01*
X42500Y38730D01*
Y42125D01*
X41375Y43250D02*
X42500Y42125D01*
X38100Y43250D02*
X41375D01*
X37950Y43400D02*
X38100Y43250D01*
X37950Y43400D02*
Y44150D01*
X39894Y38195D02*
X39899Y38200D01*
X41200D01*
X41850Y38850D01*
Y42100D01*
X41100Y42850D02*
X41850Y42100D01*
X37250Y42850D02*
X41100D01*
X36950Y43150D02*
X37250Y42850D01*
X36950Y43150D02*
Y44150D01*
X40910Y38510D02*
X41400Y39000D01*
X39894Y38510D02*
X40910D01*
X41400Y39000D02*
Y42000D01*
X40800Y42600D02*
X41400Y42000D01*
X36200Y42600D02*
X40800D01*
X35950Y42850D02*
X36200Y42600D01*
X35950Y42850D02*
Y44150D01*
X39894Y38825D02*
X40475D01*
X40800Y39150D01*
Y41750D01*
X40150Y42400D02*
X40800Y41750D01*
X35200Y42400D02*
X40150D01*
X34950Y42650D02*
X35200Y42400D01*
X34950Y42650D02*
Y44150D01*
X39225Y39494D02*
Y41625D01*
X38725Y42125D02*
X39225Y41625D01*
X34425Y42125D02*
X38725D01*
X33950Y42600D02*
X34425Y42125D01*
X33950Y42600D02*
Y44150D01*
X38400Y41800D02*
X38910Y41290D01*
Y39494D02*
Y41290D01*
X33650Y41800D02*
X38400D01*
X32950Y42500D02*
X33650Y41800D01*
X32950Y42500D02*
Y44150D01*
X38595Y39494D02*
Y41105D01*
X38150Y41550D02*
X38595Y41105D01*
X32500Y41550D02*
X38150D01*
X31950Y42100D02*
X32500Y41550D01*
X31950Y42100D02*
Y44150D01*
X37850Y41250D02*
X38280Y40820D01*
Y39494D02*
Y40820D01*
X31500Y41250D02*
X37850D01*
X30950Y41800D02*
X31500Y41250D01*
X30950Y41800D02*
Y44150D01*
X44461Y26189D02*
Y26239D01*
X28626Y38080D02*
X28641Y38095D01*
X38905Y44195D02*
X38950Y44150D01*
X29950Y41600D02*
Y44150D01*
X27950Y42050D02*
X28950Y41050D01*
X36330Y40289D02*
Y40327D01*
Y40289D02*
X36390Y40229D01*
Y39494D02*
Y40229D01*
X36705Y39494D02*
Y40300D01*
X28950Y41700D02*
Y44150D01*
X37150Y40050D02*
X37188D01*
X35900Y40350D02*
X36075Y40160D01*
X27950Y42050D02*
Y44150D01*
X36075Y39494D02*
Y40160D01*
X24888Y44344D02*
X24889Y44106D01*
X31946Y35115D02*
X31950Y35111D01*
X37946Y39513D02*
X37965Y39531D01*
X37600Y40650D02*
X37615D01*
X25600Y26834D02*
X25650Y26884D01*
X36700Y39499D02*
X36705Y39494D01*
X29400Y28450D02*
X29438D01*
X35889Y29789D02*
X36000Y29900D01*
X35889Y29268D02*
Y29789D01*
X38450Y30050D02*
X38600Y30200D01*
Y33450D01*
X37965Y34085D02*
X38600Y33450D01*
X37965Y34085D02*
Y35006D01*
X40200Y33650D02*
X40739Y33111D01*
Y29268D02*
Y33111D01*
X38888Y33650D02*
X40200D01*
X38280Y34258D02*
X38888Y33650D01*
X38280Y34258D02*
Y35006D01*
X45150Y34000D02*
X45839Y33311D01*
Y29268D02*
Y33311D01*
Y29268D02*
X45900Y29329D01*
X50759Y29338D02*
Y33441D01*
X49903Y34297D02*
X50759Y33441D01*
X39100Y34297D02*
X49903D01*
X50689Y29268D02*
X50759Y29338D01*
X39008Y34000D02*
X45150D01*
X38595Y34413D02*
X39008Y34000D01*
X38595Y34413D02*
Y35006D01*
X38910Y34488D02*
Y35006D01*
Y34488D02*
X39100Y34297D01*
X37135Y40050D02*
X37335Y39935D01*
Y39494D02*
Y39935D01*
X24600Y26834D02*
Y28600D01*
X30500Y27600D02*
X31100Y28200D01*
X32900D01*
X33300Y28600D01*
Y29700D01*
X31888Y27800D02*
X33350D01*
X33900Y28350D01*
Y29700D01*
X30500Y26834D02*
Y27600D01*
X31500Y27412D02*
X31888Y27800D01*
X31500Y26834D02*
Y27412D01*
X33888Y34700D02*
Y36488D01*
X34050Y36650D01*
X33300Y34700D02*
Y36700D01*
X33750Y37150D01*
X34050Y36650D02*
X34600D01*
X34885Y36935D01*
X35406D01*
X33750Y37150D02*
X34473D01*
X34888Y37565D01*
X35406D01*
X32634Y37426D02*
X34326D01*
X34780Y37880D01*
X35406D01*
X32566Y35115D02*
X32634Y35183D01*
Y36283D01*
Y37426D01*
X36628Y34408D02*
X36700Y34600D01*
X36611Y34363D02*
X36628Y34408D01*
X36687Y34987D02*
X36700Y34974D01*
Y34600D02*
Y34974D01*
X36687Y34987D02*
X36705Y35006D01*
X37000Y33250D02*
X37150Y33100D01*
Y32450D02*
Y33100D01*
X35693Y33193D02*
X35800Y33300D01*
X35693Y32450D02*
Y33193D01*
X35710Y30950D02*
Y32433D01*
X35693Y32450D02*
X35710Y32433D01*
X37150Y30980D02*
X37180Y30950D01*
X37150Y30980D02*
Y32450D01*
X37946Y39513D02*
X37965Y39494D01*
D16*
X50689Y26709D02*
D03*
X49311Y29259D02*
D03*
Y26700D02*
D03*
X50689Y29268D02*
D03*
X45839D02*
D03*
X44461Y26700D02*
D03*
Y29259D02*
D03*
X45839Y26709D02*
D03*
X40739Y29268D02*
D03*
X39361Y26700D02*
D03*
Y29259D02*
D03*
X40739Y26709D02*
D03*
X35889Y29268D02*
D03*
X34511Y26700D02*
D03*
Y29259D02*
D03*
X35889Y26709D02*
D03*
D17*
X36075Y39494D02*
D03*
X36390D02*
D03*
X36705D02*
D03*
X37020D02*
D03*
X37335D02*
D03*
X37650D02*
D03*
X37965D02*
D03*
X38280D02*
D03*
X38595D02*
D03*
X38910D02*
D03*
X39225D02*
D03*
Y35006D02*
D03*
X38910D02*
D03*
X38595D02*
D03*
X38280D02*
D03*
X37965D02*
D03*
X37650D02*
D03*
X37335D02*
D03*
X37020D02*
D03*
X36705D02*
D03*
X36390D02*
D03*
X36075D02*
D03*
D18*
X39894Y38825D02*
D03*
Y38510D02*
D03*
Y38195D02*
D03*
Y37880D02*
D03*
Y37565D02*
D03*
Y37250D02*
D03*
Y36935D02*
D03*
Y36620D02*
D03*
Y36305D02*
D03*
Y35990D02*
D03*
Y35675D02*
D03*
X35406D02*
D03*
Y35990D02*
D03*
Y36305D02*
D03*
Y36620D02*
D03*
Y36935D02*
D03*
Y37250D02*
D03*
Y37565D02*
D03*
Y37880D02*
D03*
Y38195D02*
D03*
Y38510D02*
D03*
Y38825D02*
D03*
D19*
X37180Y30950D02*
D03*
X37800D02*
D03*
X35710D02*
D03*
X35090D02*
D03*
X32014Y36283D02*
D03*
X32634D02*
D03*
X32566Y35115D02*
D03*
X31946D02*
D03*
D20*
X37150Y32450D02*
D03*
X35693D02*
D03*
D21*
X30066Y38804D02*
D03*
X32634Y37426D02*
D03*
X30075D02*
D03*
X32625Y38804D02*
D03*
D22*
X23448Y35713D02*
D03*
Y39217D02*
D03*
X25713D02*
D03*
D23*
Y35713D02*
D03*
D24*
X25752Y36835D02*
D03*
Y37150D02*
D03*
Y37465D02*
D03*
Y37780D02*
D03*
Y38095D02*
D03*
D37*
X31950Y34400D02*
X32700Y33650D01*
X36800D01*
X37335Y34085D01*
Y35006D01*
X25600Y26834D02*
X28500Y26801D01*
X28500Y26834D02*
Y29700D01*
X29750Y30950D01*
X35090D01*
X23700Y26300D02*
X23975Y26025D01*
X23700Y26300D02*
Y32850D01*
X25300Y26000D02*
X25600Y26300D01*
X23975Y26025D02*
X25300Y26000D01*
X25600Y26300D02*
Y26834D01*
X27000Y38095D02*
X28611D01*
X25752D02*
X27000D01*
X26950Y38145D02*
Y44150D01*
X25752Y36835D02*
X27615D01*
X26950Y34700D02*
Y36800D01*
X25650Y33400D02*
X26950Y34700D01*
X28250Y33850D02*
X30000D01*
X27950Y34150D02*
X28250Y33850D01*
X27950Y34150D02*
Y36500D01*
X27650Y36800D02*
X27950Y36500D01*
X44461Y26189D02*
X44650Y26000D01*
X39510Y26101D02*
X43069D01*
X39361Y26250D02*
X39510Y26101D01*
X25950Y44150D02*
X26950D01*
X38700Y44800D02*
X38905Y44595D01*
X38950Y44150D02*
Y44550D01*
X27150Y44800D02*
X38700D01*
X26950Y44600D02*
X27150Y44800D01*
X26950Y44150D02*
Y44600D01*
X37600Y40650D02*
X37965Y40285D01*
X30075Y40400D02*
X30375Y40700D01*
X28641Y38095D02*
X29350Y38804D01*
X30066D01*
X35350Y30250D02*
X37600D01*
X35090Y30510D02*
X35350Y30250D01*
X35090Y30510D02*
Y30950D01*
X37600Y30250D02*
X37800Y30450D01*
Y30950D01*
X31950Y34400D02*
Y35111D01*
X30000Y33850D02*
X31265Y35115D01*
X31946D01*
X28900Y25800D02*
X32800D01*
X28500Y26200D02*
X28900Y25800D01*
X32800D02*
X33700Y26700D01*
X34511D01*
Y26200D02*
X34650Y26061D01*
X34511Y26200D02*
Y26700D01*
X34650Y26061D02*
X37750Y26050D01*
X38400Y26700D01*
X39361D01*
Y26250D02*
Y26700D01*
X43069Y26101D02*
X43668Y26700D01*
X44461D01*
X51025Y25925D02*
X51400Y26300D01*
X49550Y25925D02*
X51025D01*
X49311Y26164D02*
X49550Y25925D01*
X49311Y26164D02*
Y26700D01*
X44650Y26000D02*
X48000Y25986D01*
X48734Y26700D01*
X49311D01*
X44461Y26239D02*
Y26700D01*
X37965Y39531D02*
Y40285D01*
X30375Y40700D02*
X37600Y40650D01*
X25650Y26884D02*
Y33400D01*
X29500Y26834D02*
Y27350D01*
X29750Y27600D02*
Y28100D01*
X29400Y28450D02*
X29750Y28100D01*
X29500Y27350D02*
X29750Y27600D01*
X29400Y34600D02*
Y35000D01*
X30050Y35650D01*
X31850D01*
X32014Y35814D01*
Y36283D01*
X29500Y36750D02*
X29967Y36283D01*
X32014D01*
X24889Y44106D02*
X24900Y40762D01*
X51000Y44106D02*
X51400Y43706D01*
X28500Y26200D02*
Y26800D01*
X51400Y26300D02*
Y43706D01*
X30094Y38804D02*
X30100Y38450D01*
X39888Y44106D02*
X51000D01*
X30075Y40400D02*
X30094Y38804D01*
X29500Y36750D02*
Y38050D01*
X30100Y38450D01*
D38*
X26650Y38320D02*
X27250D01*
X26650Y38360D02*
X27250D01*
X26650Y38280D02*
X27250D01*
X26650Y38440D02*
X27250D01*
X26650Y38400D02*
X27250D01*
Y37830D02*
Y38450D01*
X26650Y38160D02*
X27250D01*
X26650Y38120D02*
X27250D01*
X26650Y38240D02*
X27250D01*
X26650Y38200D02*
X27250D01*
X26650Y38000D02*
X27250D01*
X26650Y38040D02*
X27250D01*
X26650Y37960D02*
X27250D01*
X26650Y38450D02*
X27250Y38450D01*
X26650Y38080D02*
X27250D01*
X26650Y37880D02*
X27250D01*
X26650Y37920D02*
X27250D01*
X26650Y37840D02*
X27250D01*
X26650Y37830D02*
Y38450D01*
Y37830D02*
X27250Y37830D01*
X26650Y37000D02*
X27300D01*
X26650Y37040D02*
X27300D01*
X26650Y36960D02*
X27300D01*
X26650Y37120D02*
X27300D01*
X26650Y37080D02*
X27300D01*
Y37150D02*
X27300Y36500D01*
X26650Y36840D02*
X27300D01*
X26650Y36800D02*
X27300D01*
X26650Y36920D02*
X27300D01*
X26650Y36880D02*
X27300D01*
X26650Y36680D02*
X27300D01*
X26650Y36720D02*
X27300D01*
X26650Y36640D02*
X27300D01*
X26650Y37150D02*
X27300D01*
X26650Y36760D02*
X27300D01*
X26650Y36560D02*
X27300D01*
X26650Y36600D02*
X27300D01*
X26650Y36520D02*
X27300D01*
X26650Y36500D02*
Y37150D01*
Y36500D02*
X27300Y36500D01*
D39*
X24600Y26834D02*
D03*
X30500D02*
D03*
X29500D02*
D03*
X28500D02*
D03*
X28950Y44150D02*
D03*
X29950D02*
D03*
X27950D02*
D03*
X31950D02*
D03*
X32950D02*
D03*
X30950D02*
D03*
X26950D02*
D03*
X25950D02*
D03*
X33950D02*
D03*
X34950D02*
D03*
X36950D02*
D03*
X35950D02*
D03*
X37950D02*
D03*
X38950D02*
D03*
X39950D02*
D03*
D40*
X25600Y26834D02*
D03*
X31500D02*
D03*
X24950Y44150D02*
D03*
D41*
X24729Y38331D02*
D03*
Y36599D02*
D03*
D42*
X36648Y34400D02*
D03*
X37020Y34350D02*
D03*
X23700Y32850D02*
D03*
X29950Y41600D02*
D03*
X28950Y41050D02*
D03*
X36330Y40327D02*
D03*
X36705Y40300D02*
D03*
X28950Y41700D02*
D03*
X37150Y40050D02*
D03*
X35900Y40350D02*
D03*
X29400Y28450D02*
D03*
Y34600D02*
D03*
X24900Y40750D02*
D03*
X38450Y30050D02*
D03*
X36000Y29900D02*
D03*
X24600Y28600D02*
D03*
X33900Y29700D02*
D03*
X33300D02*
D03*
X33888Y34700D02*
D03*
X33300D02*
D03*
X37000Y33250D02*
D03*
X35800Y33300D02*
D03*
M02*
